<svg width="172" height="45" viewBox="0 0 172 45" fill="none" xmlns="http://www.w3.org/2000/svg">
<path d="M40.0405 22.1079C40.0405 21.4401 39.9692 20.7802 39.8243 20.1282C39.8176 20.054 39.817 19.9793 39.803 19.9063C39.3672 17.6071 38.4691 15.5032 37.119 13.5937C36.3614 12.5233 35.501 11.5438 34.485 10.7087C34.4182 10.6447 34.3547 10.5767 34.2839 10.5183C31.4719 8.19992 28.2488 6.94695 24.6044 6.79587C23.5862 6.75375 22.5702 6.79868 21.5655 6.993C21.4818 6.99974 21.397 6.99974 21.315 7.01491C19.1696 7.41983 17.154 8.1623 15.3326 9.38101C11.4322 11.9903 9.01889 15.601 8.22701 20.2293C7.69347 23.3479 8.10345 26.3734 9.42494 29.2691C12.4217 35.8356 19.6161 40.1702 27.4086 38.373C33.656 36.9319 37.6756 32.9623 39.5306 26.8266C39.9945 25.2923 40.1197 23.7079 40.0405 22.1079ZM38.3596 26.4897C36.6618 31.9553 33.1444 35.689 27.5563 37.0492C21.329 38.5645 16.1779 36.5309 12.2342 31.519C10.1904 28.922 9.15761 25.9219 9.21827 22.6038C9.29409 18.4787 10.9043 14.9944 13.8572 12.1436C15.8577 10.2122 18.2368 8.9407 20.9623 8.33977C20.9977 8.3319 21.0303 8.31281 21.0645 8.29877C21.0802 8.31337 21.0965 8.3246 21.1134 8.33303C21.1285 8.31393 21.1448 8.29765 21.1622 8.28529C21.8328 8.19431 22.5006 8.07749 23.1779 8.04099C27.0301 7.83656 30.4312 8.99349 33.4157 11.4208C34.3777 12.2032 35.2331 13.0973 35.952 14.0947C37.4335 16.1525 38.4495 18.418 38.7606 20.9661C38.8729 21.8827 38.8875 22.7998 38.8606 23.7197H38.8589C38.8589 23.7197 38.8538 23.7225 38.851 23.7248C38.8538 23.7287 38.8566 23.7327 38.86 23.736C38.7584 24.6661 38.6382 25.5939 38.3596 26.4897Z" fill="white"/>
<path d="M36.4877 22.606C32.4042 18.5545 28.3184 14.5052 24.2388 10.4498C24.0815 10.2936 24.004 10.2667 23.8299 10.4408C20.8461 13.4224 17.8543 16.3962 14.8637 19.3717C13.7837 20.4461 12.702 21.5193 11.6209 22.5931C11.4923 22.6746 11.3867 22.7594 11.5748 22.8897C11.7405 23.0475 11.9062 23.2047 12.0719 23.3625C12.1471 23.4445 12.219 23.5299 12.2976 23.6085C16.129 27.4197 19.9632 31.2292 23.7895 35.0465C23.9782 35.2346 24.0692 35.2723 24.2809 35.06C26.4724 32.8618 28.679 30.6782 30.8788 28.4879C31.7859 27.5848 32.6856 26.675 33.5887 25.768C34.576 24.7992 35.5616 23.8287 36.5523 22.8638C36.6978 22.7217 36.5557 22.674 36.4877 22.606ZM24.6437 32.7635V30.1834C24.6426 29.2573 24.6426 28.3306 24.6415 27.4045V27.3837C24.6409 26.9047 24.6409 26.4262 24.6398 25.9477V25.9275C24.6392 25.3956 24.6387 24.8638 24.6375 24.3319V24.3263C24.6375 24.1123 24.637 23.8989 24.6364 23.6849V23.6619C24.6364 23.5209 24.6426 23.4361 24.8465 23.4367C26.8419 23.4429 28.8373 23.444 30.8322 23.4445H30.8491C31.8403 23.4445 32.8316 23.4445 33.8228 23.4451C33.8577 23.4451 33.8925 23.4513 33.9902 23.4597C30.8895 26.5902 27.7995 29.6611 24.6437 32.7635ZM24.646 12.8395C24.7707 12.8771 24.8364 12.9686 24.9116 13.0422C25.9343 14.0441 26.9554 15.0483 27.9775 16.0508C28.0438 16.116 28.1157 16.1749 28.1847 16.2367C28.2179 16.2693 28.251 16.3013 28.2842 16.3333C28.4038 16.4838 28.538 16.6203 28.6924 16.7354C28.711 16.7849 28.7447 16.8191 28.7947 16.8365C28.8199 16.8932 28.8604 16.9342 28.9177 16.9578C29.3759 17.4229 29.8297 17.8918 30.2925 18.3523C31.2916 19.3453 32.2952 20.3343 33.2966 21.3244C33.3185 21.3806 33.3573 21.4205 33.4134 21.4424C33.432 21.4952 33.4673 21.5311 33.5201 21.5496C33.542 21.6064 33.5808 21.6457 33.6375 21.6676C33.6566 21.7198 33.692 21.7552 33.7442 21.7743C33.806 21.8523 33.8678 21.9299 33.9284 22.0062C33.8689 22.0809 33.7981 22.0489 33.7386 22.0489C30.8098 22.0495 27.8803 22.0455 24.9515 22.0517C24.7201 22.0523 24.6359 22.0197 24.637 21.7546C24.6415 20.2708 24.642 18.7865 24.6409 17.3027V17.2869C24.6448 17.0831 24.6493 16.8814 24.6595 16.6776C24.6684 16.4872 24.6538 16.2946 24.6404 16.1014V16.0862C24.6392 15.0556 24.6376 14.0256 24.637 12.995C24.637 12.9501 24.642 12.9046 24.646 12.8395ZM23.3059 12.9434C23.3408 13.008 23.3531 13.0821 23.3498 13.1708C23.3481 13.2141 23.3453 13.2725 23.3593 13.3174V13.9414C23.3172 14.0099 23.3492 14.1082 23.3492 14.1823C23.343 16.7276 23.3441 19.2728 23.3441 21.8181C23.3441 21.8597 23.3464 21.9006 23.3514 21.94C23.334 22.0118 23.2835 22.0545 23.138 22.054C20.2109 22.045 17.2837 22.0478 14.356 22.0478H14.1431C17.2006 18.9774 20.2142 15.9666 23.3059 12.9434ZM23.3604 32.5613C23.3604 32.586 23.352 32.6102 23.3391 32.6849C20.2255 29.6358 17.177 26.5728 14.0903 23.4423H15.7168C18.1767 23.4423 20.6371 23.4434 23.0976 23.4406C23.2627 23.4406 23.3672 23.4339 23.3666 23.6647C23.3576 26.6301 23.361 29.5954 23.3604 32.5613Z" fill="white"/>
<path d="M19.5802 32.3215C18.9725 32.3238 18.3643 32.3277 17.7566 32.3142C15.9044 32.2721 14.5744 30.9281 14.5514 29.0787C14.5441 28.471 14.5492 27.8634 14.5469 27.2551C14.5469 27.1642 14.5649 27.0676 14.4874 26.9917C14.1291 26.6424 13.7724 26.2925 13.3731 25.9016C13.4226 27.085 13.3451 28.2071 13.4203 29.3286C13.577 31.6543 15.3264 33.3751 17.6538 33.4476C18.7096 33.4801 19.7672 33.4571 20.8241 33.4582C20.8657 33.4582 20.9191 33.474 20.946 33.4054C20.6102 33.0881 20.2693 32.7708 19.9345 32.4468C19.8318 32.3468 19.7183 32.321 19.5802 32.3215Z" fill="white"/>
<path d="M28.5155 13.2455C29.1052 13.2388 29.6944 13.236 30.2835 13.2478C31.9673 13.2803 33.3612 14.5429 33.5443 16.2182C33.6173 16.8882 33.5578 17.5644 33.5679 18.2372C33.569 18.3293 33.537 18.431 33.6004 18.5101C33.9329 18.9201 34.3204 19.2751 34.7186 19.6334C34.704 18.3973 34.8304 17.1724 34.6456 15.9576C34.3474 13.993 32.8215 12.4267 30.9434 12.179C29.6899 12.0133 28.4268 12.1543 27.1682 12.1015C27.4911 12.4435 27.7978 12.7592 28.0932 13.0843C28.2123 13.2152 28.3465 13.2478 28.5155 13.2455Z" fill="white"/>
<path d="M14.4003 18.6073C14.5132 18.4911 14.5486 18.3647 14.5458 18.2052C14.5362 17.6722 14.5357 17.1392 14.5396 16.6063C14.5548 14.6945 15.9493 13.2826 17.8627 13.2472C18.4423 13.2371 19.0219 13.2489 19.6015 13.2483C19.6846 13.2483 19.8003 13.2685 19.8458 13.2242C20.2109 12.8619 20.563 12.4873 20.9112 12.1234C19.8087 12.1234 18.695 12.0762 17.5864 12.1335C15.3916 12.2475 13.6584 13.9391 13.4304 16.1272C13.3102 17.2836 13.4091 18.4439 13.4254 19.6368C13.75 19.293 14.0712 18.9465 14.4003 18.6073Z" fill="white"/>
<path d="M34.7119 27.8044C34.7214 27.1844 34.7141 26.5643 34.7141 25.8741C34.3581 26.2409 34.0233 26.5312 33.7425 26.876C33.5802 26.9738 33.5415 27.1209 33.5409 27.304C33.5398 28.0616 33.6128 28.8249 33.51 29.5758C33.2977 31.1275 32.0375 32.2463 30.4554 32.3114C29.7921 32.3389 29.1271 32.317 28.4627 32.3181C28.3617 32.3187 28.26 32.3007 28.1752 32.3889C27.8354 32.741 27.4911 33.0892 27.1165 33.4717C28.3869 33.4403 29.6191 33.52 30.8496 33.4178C31.0164 33.4043 31.1832 33.3695 31.3467 33.3324C33.1826 32.914 34.6344 31.1966 34.6563 29.4202C34.667 29.3944 34.6782 29.3696 34.6782 29.3404V29.2933C34.754 28.799 34.7046 28.3003 34.7119 27.8044Z" fill="white"/>
<path d="M154.876 30.6349V14.2447H158.621V16.9764H158.792C159.091 16.0303 159.603 15.3011 160.328 14.7889C161.061 14.2696 161.897 14.0099 162.836 14.0099C163.049 14.0099 163.288 14.0206 163.551 14.0419C163.821 14.0562 164.045 14.0811 164.223 14.1166V17.67C164.06 17.6131 163.8 17.5633 163.444 17.5206C163.096 17.4708 162.758 17.4459 162.431 17.4459C161.726 17.4459 161.093 17.5989 160.531 17.9047C159.976 18.2035 159.539 18.6197 159.219 19.1532C158.898 19.6868 158.738 20.3021 158.738 20.9993V30.6349H154.876Z" fill="white"/>
<path d="M144.921 30.9551C143.277 30.9551 141.858 30.6136 140.663 29.9307C139.475 29.2406 138.561 28.266 137.921 27.0069C137.28 25.7406 136.96 24.2503 136.96 22.5359C136.96 20.8499 137.28 19.3702 137.921 18.0968C138.568 16.8163 139.471 15.8204 140.631 15.109C141.79 14.3905 143.153 14.0313 144.718 14.0313C145.728 14.0313 146.681 14.1949 147.578 14.5221C148.481 14.8423 149.278 15.3402 149.968 16.016C150.665 16.6918 151.213 17.5526 151.611 18.5984C152.01 19.637 152.209 20.8748 152.209 22.3118V23.4962H138.774V20.8926H148.506C148.499 20.1527 148.339 19.4947 148.026 18.9185C147.713 18.3351 147.275 17.8763 146.713 17.5419C146.158 17.2076 145.511 17.0404 144.771 17.0404C143.982 17.0404 143.288 17.2325 142.69 17.6166C142.093 17.9937 141.627 18.4916 141.293 19.1105C140.965 19.7223 140.798 20.3946 140.791 21.1273V23.4002C140.791 24.3534 140.965 25.1715 141.314 25.8544C141.662 26.5303 142.15 27.0496 142.776 27.4124C143.402 27.7681 144.135 27.9459 144.974 27.9459C145.536 27.9459 146.045 27.8677 146.5 27.7112C146.955 27.5475 147.35 27.3092 147.684 26.9962C148.019 26.6832 148.271 26.2955 148.442 25.8331L152.049 26.2386C151.821 27.1918 151.387 28.0242 150.747 28.7355C150.114 29.4398 149.303 29.9876 148.314 30.3788C147.325 30.763 146.194 30.9551 144.921 30.9551Z" fill="white"/>
<path d="M131.93 30.8697C131.282 30.8697 130.727 30.6421 130.265 30.1868C129.803 29.7315 129.575 29.1766 129.582 28.5221C129.575 27.8819 129.803 27.3341 130.265 26.8788C130.727 26.4236 131.282 26.1959 131.93 26.1959C132.556 26.1959 133.1 26.4236 133.562 26.8788C134.032 27.3341 134.27 27.8819 134.277 28.5221C134.27 28.9561 134.156 29.3509 133.936 29.7066C133.722 30.0623 133.438 30.3468 133.082 30.5602C132.734 30.7665 132.349 30.8697 131.93 30.8697Z" fill="white"/>
<path d="M115.703 21.0313V30.6349H111.84V14.2447H115.532V17.0298H115.724C116.101 16.1121 116.702 15.3829 117.528 14.8423C118.36 14.3016 119.388 14.0313 120.612 14.0313C121.743 14.0313 122.728 14.2731 123.567 14.7569C124.414 15.2406 125.068 15.9413 125.531 16.859C126 17.7767 126.231 18.89 126.224 20.199V30.6349H122.361V20.7965C122.361 19.701 122.077 18.8438 121.508 18.2249C120.946 17.606 120.167 17.2965 119.171 17.2965C118.495 17.2965 117.894 17.4459 117.368 17.7447C116.848 18.0364 116.439 18.4596 116.14 19.0145C115.849 19.5694 115.703 20.2416 115.703 21.0313Z" fill="white"/>
<path d="M97.993 21.0313V30.6349H94.1302V14.2447H97.8222V17.0298H98.0143C98.3913 16.1121 98.9925 15.3829 99.8177 14.8423C100.65 14.3016 101.678 14.0313 102.901 14.0313C104.033 14.0313 105.018 14.2731 105.857 14.7569C106.704 15.2406 107.358 15.9413 107.821 16.859C108.29 17.7767 108.521 18.89 108.514 20.199V30.6349H104.651V20.7965C104.651 19.701 104.367 18.8438 103.798 18.2249C103.236 17.606 102.457 17.2965 101.461 17.2965C100.785 17.2965 100.184 17.4459 99.6576 17.7447C99.1383 18.0364 98.7292 18.4596 98.4305 19.0145C98.1388 19.5694 97.993 20.2416 97.993 21.0313Z" fill="white"/>
<path d="M82.193 30.9657C81.1544 30.9657 80.2189 30.7808 79.3866 30.4108C78.5614 30.0338 77.9069 29.4789 77.4232 28.7462C76.9466 28.0135 76.7083 27.11 76.7083 26.0358C76.7083 25.1111 76.879 24.3463 77.2205 23.7416C77.5619 23.137 78.0279 22.6532 78.6183 22.2904C79.2088 21.9276 79.8739 21.6537 80.6137 21.4688C81.3607 21.2767 82.1326 21.138 82.9293 21.0526C83.8897 20.953 84.6686 20.8641 85.2662 20.7858C85.8638 20.7005 86.2977 20.5724 86.568 20.4017C86.8455 20.2239 86.9842 19.95 86.9842 19.5801V19.516C86.9842 18.7122 86.7459 18.0897 86.2692 17.6487C85.7926 17.2076 85.1061 16.9871 84.2098 16.9871C83.2636 16.9871 82.5131 17.1934 81.9583 17.606C81.4105 18.0186 81.0406 18.5059 80.8485 19.0679L77.2418 18.5557C77.5264 17.5597 77.9959 16.7274 78.6503 16.0587C79.3048 15.3829 80.1051 14.8778 81.0512 14.5435C81.9974 14.202 83.0431 14.0313 84.1884 14.0313C84.9781 14.0313 85.7642 14.1238 86.5467 14.3087C87.3292 14.4937 88.0441 14.7996 88.6915 15.2264C89.3388 15.6461 89.8582 16.2188 90.2494 16.9444C90.6478 17.67 90.847 18.577 90.847 19.6654V30.6349H87.1336V28.3834H87.0055C86.7708 28.8387 86.44 29.2655 86.0131 29.6639C85.5934 30.0552 85.0634 30.3717 84.4232 30.6136C83.7901 30.8483 83.0467 30.9657 82.193 30.9657ZM83.1961 28.1273C83.9715 28.1273 84.6437 27.9744 85.2128 27.6685C85.7819 27.3555 86.2194 26.9429 86.5253 26.4307C86.8383 25.9185 86.9948 25.36 86.9948 24.7554V22.824C86.8739 22.9236 86.6676 23.016 86.3759 23.1014C86.0914 23.1868 85.7713 23.2615 85.4156 23.3255C85.0599 23.3895 84.7078 23.4464 84.3592 23.4962C84.0106 23.546 83.7083 23.5887 83.4522 23.6243C82.8759 23.7025 82.3602 23.8306 81.9049 24.0084C81.4496 24.1863 81.0904 24.4352 80.8272 24.7554C80.5639 25.0684 80.4323 25.4739 80.4323 25.9718C80.4323 26.6832 80.692 27.2203 81.2113 27.5831C81.7306 27.9459 82.3922 28.1273 83.1961 28.1273Z" fill="white"/>
<path d="M74.1053 8.78128V30.6349H70.2425V8.78128H74.1053Z" fill="white"/>
<path d="M52.063 36.7813V14.2447H55.8618V16.9551H56.0859C56.2851 16.5567 56.5661 16.1334 56.9289 15.6852C57.2917 15.23 57.7825 14.8423 58.4015 14.5221C59.0204 14.1949 59.81 14.0313 60.7704 14.0313C62.0366 14.0313 63.1784 14.355 64.1957 15.0023C65.22 15.6426 66.031 16.5923 66.6286 17.8514C67.2333 19.1034 67.5356 20.64 67.5356 22.4612C67.5356 24.261 67.2404 25.7904 66.6499 27.0496C66.0595 28.3087 65.2556 29.2691 64.2383 29.9307C63.2211 30.5922 62.0686 30.923 60.781 30.923C59.842 30.923 59.063 30.7665 58.4441 30.4535C57.8252 30.1405 57.3273 29.7635 56.9502 29.3224C56.5803 28.8743 56.2922 28.451 56.0859 28.0526H55.9258V36.7813H52.063ZM55.8511 22.4398C55.8511 23.4998 56.0005 24.4281 56.2993 25.2249C56.6052 26.0216 57.0427 26.6441 57.6118 27.0923C58.188 27.5333 58.8852 27.7538 59.7033 27.7538C60.5569 27.7538 61.2719 27.5262 61.8481 27.0709C62.4243 26.6085 62.8583 25.9789 63.1499 25.1822C63.4487 24.3783 63.5981 23.4642 63.5981 22.4398C63.5981 21.4225 63.4523 20.5191 63.1606 19.7294C62.8689 18.9398 62.435 18.3209 61.8588 17.8727C61.2825 17.4246 60.564 17.2005 59.7033 17.2005C58.8781 17.2005 58.1774 17.4175 57.6011 17.8514C57.0249 18.2853 56.5874 18.8936 56.2886 19.6761C55.997 20.4586 55.8511 21.3799 55.8511 22.4398Z" fill="white"/>
</svg>
